<!-- Generated by IcoMoon.io -->
<svg version="1.1" xmlns="http://www.w3.org/2000/svg" width="32" height="32" viewBox="0 0 32 32">
<path d="M26.667 6.667h-12.16l-1.173-4h-8c-1.473 0-2.667 1.194-2.667 2.667v0 17.333c0 1.473 1.194 2.667 2.667 2.667v0h9.333l1.333 4h10.667c1.473 0 2.667-1.194 2.667-2.667v0-17.333c0-1.473-1.194-2.667-2.667-2.667v0zM9.56 19.453c-3.012 0-5.453-2.442-5.453-5.453v0c0-3.012 2.442-5.453 5.453-5.453v0c1.387 0 2.653 0.493 3.653 1.453l0.12 0.053-1.667 1.573-0.080-0.067c-0.387-0.36-1.040-0.787-2.027-0.787-1.747 0-3.173 1.453-3.173 3.227s1.427 3.227 3.173 3.227c1.827 0 2.613-1.16 2.827-1.947h-2.947v-2.067h5.267l0.013 0.12c0.053 0.253 0.067 0.507 0.067 0.787 0 3.133-2.12 5.333-5.227 5.333zM17.6 17.173c0.44 0.827 0.987 1.573 1.587 2.267l-0.72 0.707zM18.627 16.16h-1.293l-0.44-1.387h5.32s-0.453 1.747-2.080 3.653c-0.693-0.827-1.187-1.64-1.507-2.267zM28 26.667c0 0.736-0.597 1.333-1.333 1.333v0h-9.333l2.667-2.667-1.080-3.693 1.227-1.227 3.573 3.587 0.947-0.973-3.587-3.573c1.2-1.373 2.133-3 2.56-4.68h1.693v-1.387h-4.853v-1.387h-1.387v1.387h-2.613l-1.573-5.387h11.76c0.736 0 1.333 0.597 1.333 1.333v0z"></path>
</svg>
