<!-- Generated by IcoMoon.io -->
<svg version="1.1" xmlns="http://www.w3.org/2000/svg" width="32" height="32" viewBox="0 0 32 32">
<title>list</title>
<path d="M8.985 0.316c-1.575 0.087-2.514 0.274-3.256 0.649-1.352 0.681-1.994 1.823-2.236 3.979-0.124 1.108-0.124 21.011 0 22.119 0.317 2.825 1.358 4.035 3.846 4.473 1.147 0.202 2.582 0.233 9.397 0.205 6.792-0.028 7.105-0.038 8.249-0.273 1.843-0.378 2.93-1.465 3.308-3.308 0.235-1.148 0.246-1.446 0.271-8.419l0.027-6.881-4.936-0.024c-5.364-0.025-5.21-0.016-6.013-0.397-0.737-0.35-1.309-1.098-1.539-2.012-0.060-0.236-0.087-1.56-0.106-5.246l-0.025-4.931-3.067 0.009c-1.689 0.005-3.452 0.031-3.92 0.057zM19.131 4.901c0 3.534 0.019 4.67 0.076 4.726s1.196 0.076 4.736 0.076h4.659l-0.043-0.47c-0.058-0.64-0.183-1.027-0.474-1.462-0.284-0.424-3.704-3.928-5.624-5.761-1.475-1.408-1.739-1.58-2.593-1.694-0.163-0.026-0.374-0.049-0.587-0.065l-0.027-0.002c-0.118 0-0.121 0.101-0.121 4.651zM21.242 16.108c0.581 0.198 1.040 0.848 1.040 1.471 0 0.381-0.187 0.821-0.471 1.104-0.49 0.492-0.247 0.471-5.831 0.471s-5.341 0.020-5.831-0.471c-0.285-0.281-0.462-0.672-0.462-1.104s0.178-0.824 0.464-1.106l0-0c0.48-0.48 0.216-0.458 5.802-0.465 4.48-0.005 5.013 0.006 5.289 0.099zM18.091 22.41c0.581 0.198 1.040 0.848 1.040 1.471 0 0.381-0.187 0.821-0.471 1.104-0.476 0.476-0.432 0.471-4.255 0.471s-3.779 0.005-4.255-0.471c-0.285-0.281-0.462-0.672-0.462-1.104s0.178-0.824 0.464-1.106l0-0c0.466-0.466 0.394-0.458 4.227-0.465 3.015-0.005 3.442 0.008 3.713 0.099z"></path>
</svg>
